<?xml version="1.0" encoding="UTF-8"?>
<!DOCTYPE svg PUBLIC "-//W3C//DTD SVG 1.1//EN" "http://www.w3.org/Graphics/SVG/1.1/DTD/svg11.dtd">
<!-- Creator: CorelDRAW X6 -->
<svg xmlns="http://www.w3.org/2000/svg" xml:space="preserve" width="100%" height="100%" version="1.1" style="shape-rendering:geometricPrecision; text-rendering:geometricPrecision; image-rendering:optimizeQuality; fill-rule:evenodd; clip-rule:evenodd"
viewBox="0 0 3558 1359"
 xmlns:xlink="http://www.w3.org/1999/xlink">
 <defs>
  <style type="text/css">
   <![CDATA[
    .fil0 {fill:#373435;fill-rule:nonzero}
   ]]>
  </style>
 </defs>
 <g id="Layer_x0020_1">
  <metadata id="CorelCorpID_0Corel-Layer"/>
  <path class="fil0" d="M496 955l-12 0 0 50 12 0c12,0 17,-7 17,-25 0,-18 -5,-25 -17,-25z"/>
  <polygon class="fil0" points="3219,1359 3216,1359 "/>
  <path class="fil0" d="M172 99l0 -63c0,-7 5,-12 12,-12l-8 0c-7,0 -12,5 -12,12l0 63c0,7 5,12 12,12l8 0c-7,0 -12,-5 -12,-12z"/>
  <path class="fil0" d="M2311 954l-9 0 0 46 11 0c16,0 16,-11 16,-24 0,-14 0,-22 -18,-22z"/>
  <path class="fil0" d="M3539 100c0,7 -5,12 -12,12l-40 0c-7,0 -12,-5 -12,-12l0 -63c0,-7 5,-12 12,-12l40 0c7,0 12,5 12,12l0 63zm19 -100l-15 0 -327 1 -2887 0 0 0 -329 0 0 1358 3219 0 340 -1 0 -1358zm-19 1323c0,7 -5,12 -12,12l-40 0c-7,0 -12,-5 -12,-12l0 -63c0,-7 5,-12 12,-12l40 0c7,0 12,5 12,12m-151 -1160c0,7 -5,12 -12,12l-40 0c-7,0 -12,-5 -12,-12l0 -63c0,-7 5,-12 12,-12l40 0c7,0 12,5 12,12l0 63zm0 1223c0,7 -5,12 -12,12l-40 0c-7,0 -12,-5 -12,-12l0 -63c0,-7 5,-12 12,-12l40 0c7,0 12,5 12,12l0 63zm-151 -1223c0,7 -5,12 -12,12l-40 0c-7,0 -12,-5 -12,-12l0 -63c0,-7 5,-12 12,-12l0 0c1,0 1,0 2,0l28 0 0 0 10 0c7,0 12,5 12,12l0 63zm-64 1160c0,-7 5,-12 12,-12l40 0c7,0 12,5 12,12l0 63c0,7 -5,12 -12,12l-10 0 0 0 -28 0c-1,0 -1,0 -1,0l-1 0c-7,0 -12,-5 -12,-12m-132 -199c-44,0 -60,-27 -60,-58l0 -14 45 0 0 15c0,11 3,21 16,21 11,0 16,-7 16,-16 0,-18 -15,-27 -37,-43 -19,-14 -37,-26 -37,-57 0,-40 22,-56 59,-56 40,0 58,20 58,51l0 18 -43 0 0 -12c0,-10 -2,-21 -15,-21 -11,0 -16,6 -16,15 0,12 21,24 46,46 24,21 31,29 31,55 0,28 -19,56 -63,56zm51 199c0,7 -5,12 -12,12l-40 0c-7,0 -12,-5 -12,-12l0 -63c0,-7 5,-12 12,-12l40 0c7,0 12,5 12,12l0 63zm-143 -702l-74 0 0 -309 -151 0 0 -73 380 0 0 74 -155 -1 0 309zm-17 702c0,7 -5,12 -12,12l-40 0c-7,0 -12,-5 -12,-12l0 -63c0,-7 5,-12 12,-12l40 0c7,0 12,5 12,12l0 63zm-160 0c0,7 -5,12 -12,12l-40 0c-7,0 -12,-5 -12,-12l0 -63c0,-7 5,-12 12,-12l40 0c7,0 12,5 12,12l0 63zm-136 -404l103 0 0 39 -57 0 0 40 50 0 0 39 -50 0 0 45 59 0 0 39 -105 0 0 -201zm-19 -453l-75 0 75 154 -82 0 -110 -227 119 -1 1 -10 0 -5 0 -5 -1 -5 -1 -4 -2 -8 -3 -8 -2 -4 -2 -3 -3 -3 -3 -3 -3 -3 -3 -2 -8 -5 -4 -2 -5 -2 -5 -2 -5 -2 -6 -2 -6 -1 -6 -1 -7 -1 -7 -1 -7 0 -7 -1 -8 0 -8 0 -8 0 -15 0 -14 1 -13 1 -12 2 -11 2 -5 1 -5 2 -9 3 -8 4 -8 4 -6 5 -5 5 -4 6 -4 6 -2 7 -1 3 -1 4 0 8 0 246 -73 0 0 -244 0 -9 1 -8 1 -8 2 -8 2 -8 2 -7 3 -7 3 -7 3 -7 4 -6 4 -6 5 -6 5 -6 5 -5 6 -5 6 -4 6 -5 7 -4 7 -4 7 -3 8 -3 8 -3 8 -3 9 -2 9 -2 9 -2 10 -2 10 -1 10 -1 11 -1 11 0 12 0 11 0 11 1 11 0 11 1 10 1 10 1 9 2 9 2 9 2 8 3 8 3 8 3 7 3 7 4 7 4 7 5 6 4 6 5 5 5 5 6 4 5 4 6 4 6 4 7 3 7 3 7 2 7 2 8 2 8 1 8 1 8 1 9 0 91zm-5 857c0,7 -5,12 -12,12l-40 0c-7,0 -12,-5 -12,-12l0 -63c0,-7 5,-12 12,-12l40 0c7,0 12,5 12,12l0 63zm-160 0c0,7 -5,12 -12,12l-40 0c-7,0 -12,-5 -12,-12l0 -63c0,-7 5,-12 12,-12l40 0c7,0 12,5 12,12l0 63zm-120 -203c-5,-7 -5,-25 -5,-38l0 -32c0,-12 -5,-17 -18,-17l-9 0 0 87 -45 0 0 -201 60 0c41,0 59,12 59,49 0,24 -3,39 -28,47l0 1c16,3 27,15 27,32l0 36c0,13 0,31 5,38l-46 0zm-40 203c0,7 -5,12 -12,12l-40 0c-7,0 -12,-5 -12,-12l0 -63c0,-7 5,-12 12,-12l40 0c7,0 12,5 12,12l0 63zm-160 -1224c0,7 -5,12 -12,12l-40 0c-7,0 -12,-5 -12,-12l0 -63c0,-7 5,-12 12,-12l40 0c7,0 12,5 12,12l0 63zm0 1224c0,7 -5,12 -12,12l-40 0c-7,0 -12,-5 -12,-12l0 -63c0,-7 5,-12 12,-12l40 0c7,0 12,5 12,12l0 63zm-133 -704l-315 0 0 -251 1 -8 1 -8 2 -8 1 -8 2 -7 2 -7 3 -7 3 -7 4 -6 4 -6 5 -6 5 -6 5 -5 5 -5 6 -4 6 -5 7 -4 7 -4 7 -3 8 -3 8 -3 8 -3 9 -2 9 -2 10 -2 10 -2 10 -1 10 -1 11 -1 11 0 12 0 12 0 11 0 11 0 11 1 10 1 10 1 10 1 9 2 9 2 8 3 8 3 8 3 7 3 7 4 7 4 7 4 6 4 6 5 5 5 5 6 4 5 4 6 4 6 4 7 3 7 3 7 2 7 2 8 1 8 1 8 1 8 1 9 0 93 -193 -1 0 -73 120 0 0 -20 -1 -8 -2 -8 -3 -7 -2 -3 -2 -3 -5 -6 -3 -3 -3 -2 -3 -3 -3 -2 -7 -4 -8 -4 -9 -3 -10 -3 -11 -2 -12 -2 -12 -1 -13 -1 -7 0 -7 0 -15 0 -13 1 -13 1 -11 2 -11 2 -5 1 -5 2 -9 3 -8 4 -7 4 -6 5 -6 5 -4 6 -4 6 -2 7 -2 7 -1 8 -1 170 243 0 0 75zm-2 447c0,36 -23,58 -60,58 -37,0 -60,-22 -60,-58l0 -146 46 0 0 147c0,11 0,20 13,20 13,0 13,-10 13,-20l0 -147 46 0 0 146zm-25 258c0,7 -5,12 -12,12l-40 0c-7,0 -12,-5 -12,-12l0 -63c0,-7 5,-12 12,-12l40 0c7,0 12,5 12,12l0 63zm-160 0c0,7 -5,12 -12,12l-40 0c-7,0 -12,-5 -12,-12l0 -63c0,-7 5,-12 12,-12l40 0c7,0 12,5 12,12l0 63zm-160 -1224c0,7 -5,12 -12,12l-40 0c-7,0 -12,-5 -12,-12l0 -63c0,-7 5,-12 12,-12l40 0c7,0 12,5 12,12l0 63zm0 1224c0,7 -5,12 -12,12l-40 0c-7,0 -12,-5 -12,-12l0 -63c0,-7 5,-12 12,-12l40 0c7,0 12,5 12,12l0 63zm-71 -203l-46 0 0 -163 -30 0 0 -39 106 0 0 39 -30 0 0 163zm-89 203c0,7 -5,12 -12,12l-40 0c-7,0 -12,-5 -12,-12l0 -63c0,-7 5,-12 12,-12l40 0c7,0 12,5 12,12l0 63zm-320 -1084l88 0 70 155 74 0 73 -155 84 0 -194 382 -195 -382zm160 1084c0,7 -5,12 -12,12l-40 0c-7,0 -12,-5 -12,-12l0 -63c0,-7 5,-12 12,-12l40 0c7,0 12,5 12,12l0 63zm-83 -330l-46 0 0 -23c0,-7 0,-18 -13,-18 -13,0 -13,12 -13,18l0 99c0,5 0,18 13,18 13,0 13,-13 13,-18l0 -29 46 0 0 25c0,36 -23,58 -60,58 -37,0 -60,-22 -60,-58l0 -91c0,-39 25,-58 60,-58 34,0 60,19 60,58l0 19zm-77 330c0,7 -5,12 -12,12l-40 0c-7,0 -12,-5 -12,-12l0 -63c0,-7 5,-12 12,-12l40 0c7,0 12,5 12,12l0 63zm-111 -703l-73 0 0 -241 0 -9 -1 -4 -1 -4 -2 -8 -3 -7 -2 -3 -2 -3 -5 -6 -6 -5 -3 -2 -3 -2 -8 -4 -9 -4 -10 -3 -11 -2 -6 -1 -6 -1 -13 -1 -14 -1 -14 0 -15 0 -14 1 -13 1 -12 2 -11 2 -10 3 -9 4 -8 4 -4 2 -3 2 -6 5 -5 6 -2 3 -2 3 -3 7 -2 8 -1 4 0 4 0 9 0 241 -73 0 0 -241c0,0 1,-92 84,-127 2,-1 8,-3 8,-3l8 -3 8 -2 9 -2 9 -2 9 -1 9 -1 10 -1 10 -1 11 0 10 0 12 0 11 0 9 0 11 0 10 1 9 0 9 1 9 1 9 2 8 2 8 2 8 3c0,0 6,2 8,3 84,35 83,127 83,127l0 241zm-48 703c0,7 -5,12 -12,12l-40 0c-7,0 -12,-5 -12,-12l0 -63c0,-7 5,-12 12,-12l40 0c7,0 12,5 12,12l0 63zm-147 -203l-46 0 0 -201 46 0 0 201zm-13 203c0,7 -5,12 -12,12l-40 0c-7,0 -12,-5 -12,-12l0 -63c0,-7 5,-12 12,-12l40 0c7,0 12,5 12,12l0 63zm-160 0c0,7 -5,12 -12,12l-40 0c-7,0 -12,-5 -12,-12l0 -63c0,-7 5,-12 12,-12l40 0c7,0 12,5 12,12l0 63zm-187 -282l-24 0 0 80 -46 0 0 -201 50 0c51,0 72,9 72,61 0,30 -9,61 -51,61zm-25 294c-7,0 -12,-5 -12,-12l0 -63c0,-7 5,-12 12,-12l40 0c7,0 12,5 12,12l0 63c0,7 -5,12 -12,12m-86 -1099l73 0 0 383 -73 0 0 -383zm-50 -137c0,7 -5,12 -12,12l-42 0c-7,0 -12,-5 -12,-12l0 -63c0,-7 5,-12 12,-12l42 0c7,0 12,5 12,12l0 63zm-11 1224c0,5 -3,9 -7,11 -2,1 -3,1 -5,1l-29 0 0 0 -11 0c-7,0 -12,-5 -12,-12l0 -63c0,-7 5,-12 12,-12l40 0c7,0 12,5 12,12l0 63zm-141 -1224c0,7 -5,12 -12,12l-48 0c-7,0 -12,-5 -12,-12l0 -63c0,-7 5,-12 12,-12l48 0c7,0 12,5 12,12l0 63zm-10 1224c0,7 -5,12 -12,12l-40 0c-7,0 -12,-5 -12,-12l0 -63c0,-7 5,-12 12,-12l40 0c7,0 12,5 12,12l0 63zm-141 -1224c0,7 -5,12 -12,12l-40 0c-7,0 -12,-5 -12,-12l0 -63c0,-7 5,-12 12,-12l40 0c7,0 12,5 12,12l0 63zm0 1224c0,7 -5,12 -12,12l-40 0c-7,0 -12,-5 -12,-12l0 -63c0,-7 5,-12 12,-12l40 0c7,0 12,5 12,12l0 63zm387 -1287c0,-7 5,-12 12,-12l40 0c7,0 12,5 12,12l0 63c0,7 -5,12 -12,12l-40 0c-7,0 -12,-5 -12,-12l0 -63zm160 0c0,-7 5,-12 12,-12l40 0c7,0 12,5 12,12l0 63c0,7 -5,12 -12,12l-40 0c-7,0 -12,-5 -12,-12l0 -63zm160 0c0,-7 5,-12 12,-12l40 0c7,0 12,5 12,12l0 63c0,7 -5,12 -12,12l-40 0c-7,0 -12,-5 -12,-12l0 -63zm160 0c0,-7 5,-12 12,-12l40 0c7,0 12,5 12,12l0 63c0,7 -5,12 -12,12l-40 0c-7,0 -12,-5 -12,-12l0 -63zm160 0c0,-7 5,-12 12,-12l40 0c7,0 12,5 12,12l0 63c0,7 -5,12 -12,12l-40 0c-7,0 -12,-5 -12,-12l0 -63zm160 0c0,-7 5,-12 12,-12l40 0c7,0 12,5 12,12l0 63c0,7 -5,12 -12,12l-40 0c-7,0 -12,-5 -12,-12l0 -63zm160 0c0,-7 5,-12 12,-12l40 0c7,0 12,5 12,12l0 63c0,7 -5,12 -12,12l-40 0c-7,0 -12,-5 -12,-12l0 -63zm320 0c0,-7 5,-12 12,-12l40 0c7,0 12,5 12,12l0 63c0,7 -5,12 -12,12l-40 0c-7,0 -12,-5 -12,-12l0 -63zm160 0c0,-7 5,-12 12,-12l40 0c7,0 12,5 12,12l0 63c0,7 -5,12 -12,12l-40 0c-7,0 -12,-5 -12,-12l0 -63zm320 0c0,-7 5,-12 12,-12l40 0c7,0 12,5 12,12l0 63c0,7 -5,12 -12,12l-40 0c-7,0 -12,-5 -12,-12l0 -63zm160 0c0,-7 5,-12 12,-12l40 0c7,0 12,5 12,12l0 63c0,7 -5,12 -12,12l-40 0c-7,0 -12,-5 -12,-12l0 -63zm160 0c0,-7 5,-12 12,-12l40 0c7,0 12,5 12,12l0 63c0,7 -5,12 -12,12l-40 0c-7,0 -12,-5 -12,-12l0 -63zm160 0c0,-7 5,-12 12,-12l40 0c7,0 12,5 12,12l0 63c0,7 -5,12 -12,12l-40 0c-7,0 -12,-5 -12,-12l0 -63zm160 0c0,-7 5,-12 12,-12l40 0c7,0 12,5 12,12l0 63c0,7 -5,12 -12,12l-40 0c-7,0 -12,-5 -12,-12l0 -63zm160 0c0,-7 5,-12 12,-12l40 0c7,0 12,5 12,12l0 63c0,7 -5,12 -12,12l-40 0c-7,0 -12,-5 -12,-12l0 -63z"/>
 </g>
</svg>
